<svg width="241" height="74" viewBox="0 0 241 74" fill="none" xmlns="http://www.w3.org/2000/svg">
<g clip-path="url(#clip0_29_149)">
<path d="M155.597 65.2067C156.132 65.2653 157.012 64.92 157.381 65.3387C157.707 65.7027 157.481 66.56 157.495 67.1987C157.499 67.4493 157.455 67.704 157.499 67.9467C157.669 68.7733 157.224 69.1853 156.561 69.5387C155.089 70.3227 153.525 70.548 151.944 70.156C150.872 69.8853 150.004 69.1947 149.431 68.1773C148.993 67.4067 148.833 66.5987 148.792 65.7253C148.708 64.02 149.256 62.6253 150.587 61.5267C151.117 61.0907 151.735 60.9187 152.379 60.804C153.304 60.6333 154.231 60.7107 155.131 60.976C156.232 61.3027 156.865 62.1053 157.245 63.144C157.353 63.44 157.293 63.684 156.908 63.704C156.845 63.7093 156.775 63.7093 156.72 63.7253C156.357 63.8413 155.955 63.988 155.616 64C155.249 64.0173 155.268 63.4173 155.065 63.1147C154.408 62.1187 152.083 62.196 151.316 63.2973C150.42 64.5867 150.496 66.5947 151.416 67.7773C152.227 68.8253 154.388 68.9667 155.365 68.0573C155.691 67.7613 155.54 67.3453 155.499 66.9987C155.461 66.6933 155.124 66.8667 154.92 66.84C154.7 66.8107 154.469 66.832 154.239 66.832C153.69 66.832 153.416 66.56 153.416 66.016C153.416 65.4747 153.688 65.204 154.233 65.204C154.653 65.2067 155.065 65.2067 155.597 65.2067Z" fill="#00853F"/>
<path d="M10.6733 60.7693C11.2347 60.9147 11.7667 60.8293 12.292 60.8493C12.5587 60.8587 12.644 60.9 12.6227 61.2333C12.5667 62.2293 12.6093 63.2227 12.5933 64.22C12.588 64.54 12.7213 64.592 12.996 64.5907C13.9507 64.5787 14.9027 64.5733 15.8573 64.592C16.1707 64.596 16.2333 64.4813 16.2307 64.196C16.2173 63.24 16.244 62.2893 16.2173 61.3333C16.208 60.968 16.2933 60.84 16.688 60.84C18.1147 60.8347 18.1147 60.8213 18.1147 62.2413C18.1147 64.7093 18.1067 67.1787 18.1227 69.6453C18.128 70.0627 18.0387 70.208 17.588 70.204C16.2213 70.1907 16.2213 70.208 16.2213 68.8707C16.2213 68.1227 16.2093 67.372 16.2307 66.6293C16.2387 66.316 16.1613 66.192 15.8187 66.2C14.8853 66.2213 13.9507 66.2267 13.0213 66.2C12.64 66.1893 12.5827 66.3413 12.588 66.672C12.6067 67.6867 12.576 68.7013 12.6067 69.7147C12.6187 70.1147 12.4827 70.192 12.1133 70.1973C10.6733 70.2067 10.6733 70.2227 10.6733 68.804V61.336C10.6733 61.1587 10.6733 60.9733 10.6733 60.7693Z" fill="#00853F"/>
<path d="M201.756 65.464C201.756 64.0933 201.772 62.7253 201.747 61.356C201.739 60.9387 201.875 60.8387 202.275 60.8387C203.679 60.844 203.679 60.8267 203.679 62.2053C203.679 62.8707 203.692 63.5347 203.679 64.2C203.669 64.4907 203.749 64.596 204.06 64.592C205.013 64.5787 205.972 64.5733 206.92 64.592C207.279 64.6 207.324 64.4547 207.319 64.1547C207.3 63.2013 207.329 62.248 207.305 61.2947C207.296 60.9373 207.408 60.8493 207.756 60.844C209.203 60.8227 209.203 60.812 209.203 62.2253C209.203 64.6907 209.192 67.16 209.219 69.6267C209.223 70.0947 209.1 70.2173 208.635 70.208C207.311 70.1853 207.311 70.208 207.311 68.8893C207.311 68.1453 207.296 67.396 207.319 66.6493C207.333 66.2867 207.205 66.196 206.86 66.2027C205.947 66.2267 205.036 66.2267 204.12 66.2027C203.769 66.196 203.664 66.3067 203.675 66.6587C203.692 67.6733 203.664 68.6893 203.689 69.7093C203.697 70.084 203.615 70.2053 203.215 70.2093C201.757 70.224 201.757 70.2427 201.757 68.768C201.761 67.6613 201.761 66.56 201.756 65.464Z" fill="#00853F"/>
<path d="M45.328 67.6053C45.632 66.368 45.9493 65.1467 46.232 63.9147C46.3254 63.4973 46.484 63.316 46.952 63.324C48.0987 63.356 48.0987 63.3293 48.392 64.4347C48.6494 65.4227 48.9094 66.408 49.232 67.4C49.6374 66.532 49.8734 65.6213 50.0894 64.708C50.1147 64.5907 50.1227 64.4693 50.1627 64.352C50.4338 63.6062 51.1418 63.2787 52.2867 63.3693C52.0734 64.0227 51.8547 64.6667 51.6574 65.3133C51.1947 66.808 50.7414 68.3067 50.292 69.808C50.2107 70.084 50.0854 70.1933 49.7814 70.2013C48.3934 70.236 48.3814 70.2507 47.9867 68.7013C47.8707 68.2507 47.772 67.8013 47.6254 67.3573C47.4854 66.9267 47.42 66.468 47.296 65.916C46.932 66.784 46.8587 67.62 46.6107 68.4093C46.452 68.916 46.3494 69.4427 46.224 69.9573C46.216 69.9973 46.216 70.0626 46.1947 70.072C45.7067 70.308 45.184 70.124 44.6827 70.1893C44.4027 70.2213 44.3094 70.016 44.2547 69.8307C43.7827 68.2893 43.332 66.74 42.8654 65.2C42.6867 64.5973 42.472 64.012 42.2494 63.3307C42.7774 63.3307 43.2814 63.336 43.788 63.328C44.028 63.3227 44.0787 63.4547 44.1347 63.6613C44.4467 64.8547 44.7894 66.0387 45.1027 67.2253C45.1347 67.3853 45.1867 67.5 45.328 67.6053Z" fill="#00853F"/>
<path d="M39.544 64.0053C39.544 63.052 39.556 62.184 39.5347 61.316C39.5267 60.98 39.6 60.8493 39.972 60.844C41.3693 60.816 41.3693 60.796 41.3693 62.2053C41.3693 64.676 41.352 67.1427 41.3827 69.6093C41.3867 70.1147 41.232 70.2707 40.7613 70.2013C40.5973 70.18 40.4307 70.1907 40.264 70.2013C39.8307 70.232 39.4227 70.244 39.6333 69.6267C39.3973 69.5213 39.3213 69.6867 39.2147 69.7667C38.048 70.6493 36.3573 70.56 35.396 69.0733C34.4413 67.5973 34.5267 66.0333 35.2933 64.544C35.944 63.2827 37.676 62.5787 39.544 64.0053ZM36.6133 66.736C36.6253 66.736 36.6387 66.736 36.6507 66.7373C36.6507 66.9453 36.6427 67.156 36.6507 67.3627C36.6893 68.144 37.3027 68.876 37.9667 68.94C38.648 69.0067 39.1747 68.5787 39.4147 67.724C39.5853 67.1053 39.5853 66.46 39.44 65.8453C39.2293 64.9787 38.78 64.5987 38.0813 64.5987C37.468 64.5987 36.9293 65.0587 36.7107 65.8253C36.6267 66.1093 36.6427 66.428 36.6133 66.736Z" fill="#00853F"/>
<path d="M99.5093 69.452C98.9613 69.9453 98.4133 70.228 97.7587 70.308C96.2893 70.488 95.3027 69.48 94.9413 68.4467C94.428 67 94.448 65.52 95.412 64.1893C95.9467 63.4493 97.06 63.0453 97.9587 63.2573C98.4747 63.3693 98.92 63.6 99.4267 64.0693C99.4267 63.136 99.4613 62.328 99.4133 61.52C99.384 61.008 99.4867 60.816 100.059 60.8387C101.251 60.8947 101.251 60.8573 101.251 62.0333C101.251 64.5787 101.237 67.1253 101.263 69.6693C101.268 70.116 101.14 70.2653 100.712 70.2013C100.551 70.1747 100.383 70.1933 100.215 70.1987C99.748 70.2133 99.272 70.2507 99.5093 69.452ZM99.3987 66.7773C99.3987 66.5747 99.428 66.3573 99.3947 66.156C99.256 65.3867 99.0813 64.9107 98.396 64.6907C97.7693 64.4907 97.332 64.6947 96.9093 65.132C96.32 65.7373 96.404 67.8747 96.9307 68.4067C97.2707 68.7493 97.6333 69.012 98.124 68.9173C98.68 68.8093 99.0773 68.4947 99.268 67.9267C99.3987 67.5453 99.3773 67.1653 99.3987 66.7773Z" fill="#00853F"/>
<path d="M71.4933 70.1933C70.9667 70.1933 70.4387 70.1813 69.9093 70.1987C69.6347 70.204 69.5707 70.0173 69.472 69.8373C68.9933 68.9693 68.508 68.1027 68.024 67.2307C67.2227 67.8053 67.2013 67.8467 67.2013 68.8653C67.2013 70.208 67.2013 70.1907 65.8947 70.204C65.4453 70.208 65.356 70.0627 65.36 69.6453C65.3773 66.8893 65.3813 64.132 65.36 61.3747C65.356 60.9267 65.4973 60.8293 65.9173 60.8387C67.2027 60.8573 67.2027 60.8333 67.2027 62.1427V65.7013C67.636 65.12 67.9787 64.676 68.3413 64.292C68.7307 63.88 69.0227 63.1493 69.872 63.32C70.3253 63.4133 70.8173 63.336 71.448 63.336C70.784 64.068 70.2227 64.736 69.6013 65.3467C69.22 65.7173 69.2027 65.9973 69.4813 66.4453C70.1227 67.484 70.7027 68.564 71.2973 69.6253C71.3853 69.7867 71.5413 69.9187 71.4933 70.1933Z" fill="#00853F"/>
<path d="M25.9653 70.1933C25.4347 70.1933 24.9587 70.1907 24.4867 70.1933C24.2853 70.1933 24.1147 70.156 24.08 69.9173C24.0147 69.484 23.8307 69.5227 23.552 69.76C22.8227 70.3773 21.9147 70.4573 21.08 70.2707C20.1853 70.068 19.3573 68.7613 19.6787 67.7627C20.116 66.42 21.268 66.3867 22.3 66.0813C22.6307 65.9827 22.968 65.912 23.3027 65.8427C23.56 65.7853 23.9067 65.8027 23.808 65.404C23.7347 65.0867 23.688 64.7653 23.1987 64.6853C22.492 64.5773 21.884 64.516 21.5413 65.3C21.4813 65.4373 21.3613 65.4587 21.2333 65.4507C21.052 65.4413 20.856 65.5147 20.6933 65.3853C20.4493 65.188 19.896 65.516 19.904 65.1347C19.9213 64.6573 20.1267 64.1213 20.5773 63.816C21.9013 62.932 23.3107 63.0773 24.7027 63.596C25.2733 63.804 25.5307 64.3347 25.552 64.9333C25.5787 65.6587 25.5813 66.3853 25.5853 67.108C25.5933 68.1347 25.4987 69.168 25.9653 70.1933ZM22.372 68.9293C23.0613 68.9293 23.64 68.568 23.7867 68.0453C23.9973 67.2867 23.8373 67.1133 23.08 67.2693C22.7627 67.3387 22.436 67.376 22.132 67.48C21.7933 67.5973 21.36 67.716 21.468 68.2027C21.5653 68.6547 21.8787 68.9347 22.372 68.9293Z" fill="#00853F"/>
<path d="M165.013 70.1933H163.54C163.337 70.1933 163.164 70.1627 163.127 69.9227C163.051 69.3773 162.801 69.6093 162.553 69.7893C162.035 70.1693 161.455 70.3347 160.805 70.312C159.667 70.2747 158.733 69.536 158.648 68.484C158.568 67.516 159.128 66.644 160.344 66.3333C161.036 66.1507 161.739 66.004 162.428 65.8347C162.617 65.7867 162.895 65.7973 162.867 65.508C162.832 65.212 162.799 64.8733 162.471 64.7333C161.743 64.42 161.089 64.5613 160.619 65.1907C160.424 65.456 160.205 65.472 159.943 65.4387C159.845 65.4267 159.755 65.3547 159.657 65.336C158.821 65.1813 158.816 65.124 159.229 64.3547C159.788 63.3013 161.255 63.1093 162.413 63.2693C162.728 63.3173 163.061 63.28 163.383 63.392C164.336 63.7253 164.588 64.476 164.632 65.368C164.7 66.6507 164.544 67.9333 164.701 69.2173C164.745 69.552 164.931 69.8187 165.013 70.1933ZM161.268 68.9373C161.844 68.9253 162.248 68.8053 162.576 68.492C162.924 68.152 162.989 67.6693 162.821 67.2987C162.709 67.04 162.281 67.208 161.991 67.3067C161.697 67.4 161.393 67.4333 161.108 67.524C160.749 67.636 160.427 67.8493 160.524 68.256C160.621 68.6493 160.909 68.9653 161.268 68.9373Z" fill="#00853F"/>
<path d="M136.711 68.3467C136.303 69.516 135.48 70.152 134.293 70.296C131.168 70.6813 130.169 68.0507 130.591 65.8973C130.813 64.7467 131.403 63.92 132.469 63.3947C132.8 63.2293 133.095 63.2387 133.409 63.2227C136.091 63.0893 136.843 65.104 136.736 67.0907C136.709 67.4573 136.452 67.3253 136.277 67.3253C135.161 67.3387 134.037 67.3653 132.924 67.3187C132.328 67.2933 132.333 67.528 132.483 67.9573C132.661 68.4613 133.024 68.8413 133.527 68.912C134.024 68.9813 134.512 68.8413 134.84 68.3267C135.097 67.9093 135.557 68.2093 135.916 68.2173C136.159 68.2307 136.425 68.3067 136.711 68.3467ZM133.645 66.2C133.973 66.2 134.311 66.1733 134.639 66.2067C135.029 66.2467 135.035 66.0427 134.992 65.7613C134.869 65.0053 134.452 64.7 133.533 64.708C132.977 64.7133 132.456 65.236 132.377 65.8587C132.352 66.0667 132.367 66.2267 132.649 66.2067C132.983 66.1893 133.311 66.2 133.645 66.2Z" fill="#00853F"/>
<path d="M58.892 68.3867C58.276 69.9013 57.2253 70.4587 55.3267 70.2907C54.1147 70.1853 53.0907 69.18 52.808 67.7987C52.6067 66.8133 52.684 65.8827 53.076 64.9733C53.6 63.7827 54.7093 63.1253 56.064 63.2213C57.3107 63.3107 58.3733 64.0027 58.72 65.2347C58.884 65.812 58.8867 66.36 58.9307 66.9307C58.956 67.2707 58.824 67.3427 58.5107 67.3373C57.3494 67.3213 56.1894 67.364 55.0307 67.316C54.4707 67.296 54.496 67.6227 54.6294 67.9147C54.852 68.408 55.1907 68.8627 55.7867 68.9267C56.3267 68.9853 56.8107 68.8213 57.0454 68.26C57.1187 68.0907 57.2294 68.0427 57.384 68.0987C57.864 68.2693 58.396 68.1507 58.892 68.3867ZM55.8373 66.2C56.168 66.2 56.5027 66.1733 56.8267 66.2067C57.2093 66.2467 57.2293 66.052 57.1827 65.7653C57.076 65.0773 56.54 64.5893 55.876 64.5907C55.2853 64.5947 54.6467 65.2093 54.5693 65.8573C54.544 66.0613 54.5667 66.2213 54.844 66.2027C55.1774 66.1893 55.508 66.2 55.8373 66.2Z" fill="#00853F"/>
<path d="M228.928 68.3413C228.515 69.7627 227.289 70.4373 225.532 70.296C224.175 70.1853 223.143 69.2133 222.864 67.912C222.649 66.8693 222.704 65.8693 223.155 64.9053C223.696 63.7413 224.649 63.164 225.912 63.2253C227.288 63.296 228.184 63.6893 228.74 65.1133C228.98 65.7293 228.992 66.3893 228.98 67.048C228.971 67.4013 228.756 67.3253 228.563 67.3253C227.401 67.3307 226.237 67.3253 225.076 67.3307C224.599 67.3307 224.489 67.524 224.701 67.9693C225.249 69.1227 226.284 69.2333 227.112 68.264C227.379 67.9467 227.815 68.2093 228.168 68.2267C228.403 68.236 228.675 68.292 228.928 68.3413ZM225.889 66.2C226.237 66.2 226.587 66.196 226.94 66.2C227.119 66.2 227.255 66.196 227.245 65.9467C227.227 65.348 226.849 64.8213 226.291 64.648C225.588 64.436 224.963 64.8413 224.672 65.692C224.544 66.044 224.572 66.2427 225.015 66.204C225.307 66.184 225.597 66.2 225.889 66.2Z" fill="#00853F"/>
<path d="M28.948 64.2253C29.668 63.6013 30.344 63.2067 31.232 63.2067C32.4013 63.2027 33.3613 63.7907 33.4413 65.1733C33.536 66.7387 33.596 68.3307 33.4587 69.892C33.3987 70.592 32.5627 70.0373 32.1 70.1867C31.8347 70.272 31.6467 70.1827 31.6547 69.8147C31.6813 68.9013 31.6333 67.9893 31.672 67.08C31.6987 66.496 31.5773 65.9373 31.536 65.3653C31.4893 64.7013 30.4853 64.396 29.8253 64.8373C29.44 65.1 29.192 65.4653 29.1867 65.96C29.1787 67.204 29.148 68.4467 29.1653 69.6893C29.168 70.1053 29.0453 70.2027 28.6467 70.2027C27.3107 70.2 27.3107 70.2147 27.3107 68.896C27.3107 67.28 27.344 65.6613 27.2933 64.0467C27.272 63.4173 27.4773 63.3053 28.0507 63.3187C28.6573 63.3333 29.1453 63.324 28.948 64.2253Z" fill="#00853F"/>
<path d="M217.519 66.696C217.771 68.8707 215.997 70.336 214.128 70.3227C212.076 70.3093 210.797 68.8827 210.661 67.1893C210.465 64.736 212.259 63.1413 214.1 63.1907C216.191 63.2573 217.807 64.808 217.519 66.696ZM215.805 66.72C215.74 66.3667 215.703 66.0147 215.603 65.692C215.297 64.6787 213.993 64.2827 213.223 64.94C212.275 65.7547 212.277 67.8427 213.26 68.6173C213.956 69.1707 214.948 68.9787 215.44 68.1853C215.719 67.7333 215.669 67.2027 215.805 66.72Z" fill="#00853F"/>
<path d="M88.692 64.208C89.4253 63.608 90.1093 63.1973 91.0213 63.2027C91.9947 63.2067 93.024 63.6813 93.1827 65.0267C93.376 66.6547 93.2253 68.296 93.264 69.932C93.2693 70.1107 93.1853 70.1933 93.0067 70.1933C92.572 70.1907 92.1387 70.1813 91.7013 70.1987C91.3533 70.208 91.4253 69.9707 91.424 69.7733C91.4187 68.7587 91.4307 67.744 91.416 66.728C91.4053 66.26 91.3653 65.7893 91.2973 65.3253C91.208 64.7253 90.312 64.4333 89.6613 64.7933C89.228 65.0333 88.9627 65.4293 88.9547 65.936C88.9267 67.1787 88.916 68.42 88.9267 69.6627C88.932 70.036 88.8813 70.204 88.436 70.2013C87.0733 70.1987 87.0733 70.2173 87.0733 68.856C87.0733 67.1973 87.0853 65.54 87.064 63.8813C87.06 63.4613 87.1507 63.2533 87.6 63.332C87.6813 63.3467 87.7667 63.3467 87.8493 63.332C88.452 63.2547 88.8973 63.3387 88.692 64.208Z" fill="#00853F"/>
<path d="M189.384 66.7893C189.607 68.8373 187.915 70.284 186.003 70.3213C184.004 70.3627 182.547 68.7387 182.541 67.156C182.532 64.6707 183.805 63.1907 185.956 63.2133C187.939 63.2387 189.575 64.4907 189.384 66.7893ZM184.417 66.8133C184.417 66.932 184.397 67.1373 184.423 67.344C184.497 68.0333 185.151 68.836 185.709 68.9213C186.448 69.0333 187.179 68.6333 187.428 67.9053C187.685 67.1587 187.724 66.388 187.451 65.6293C187.216 64.9787 186.709 64.6307 186.047 64.6C185.419 64.572 184.959 64.92 184.655 65.4693C184.444 65.8693 184.36 66.2867 184.417 66.8133Z" fill="#00853F"/>
<path d="M116.264 65.1653C116.001 65.224 115.74 65.264 115.493 65.3387C115.021 65.4787 114.644 65.5613 114.348 64.9747C114.088 64.4547 112.716 64.5733 112.367 64.8213C112.044 65.052 112.139 65.3133 112.473 65.488C112.927 65.7227 113.42 65.868 113.912 65.9253C114.392 65.9813 114.816 66.1733 115.261 66.3067C116.077 66.5547 116.525 67.1253 116.525 67.996C116.525 68.8413 116.169 69.528 115.404 69.8987C114.155 70.4933 112.872 70.504 111.612 69.9227C110.895 69.5893 110.496 68.9693 110.253 68.2267C110.728 68.1427 111.204 68.0627 111.679 67.9693C111.909 67.9213 112.024 68.004 112.161 68.2013C112.683 68.9693 113.489 69.1733 114.319 68.7853C114.556 68.6747 114.729 68.5093 114.711 68.2147C114.693 67.9213 114.496 67.884 114.265 67.8C113.66 67.5786 113.024 67.504 112.413 67.3133C111.565 67.0586 110.765 66.7253 110.511 65.7293C110.247 64.672 111.112 63.4747 112.191 63.3293C112.891 63.2347 113.559 63.196 114.26 63.324C115.431 63.544 115.997 64.0053 116.264 65.1653Z" fill="#00853F"/>
<path d="M171.787 65.168C171.52 65.2267 171.257 65.264 171.007 65.344C170.529 65.4987 170.152 65.5547 169.86 64.9707C169.656 64.5587 168.249 64.5027 167.884 64.8187C167.607 65.048 167.636 65.312 167.944 65.4587C168.269 65.6213 168.628 65.7653 168.977 65.812C169.727 65.8973 170.396 66.192 171.087 66.4453C172.205 66.852 172.253 68.4293 171.697 69.2213C171.187 69.9467 170.433 70.252 169.575 70.2973C168.697 70.3427 167.813 70.4013 167.02 69.872C166.517 69.544 166.137 69.1293 165.912 68.5707C165.831 68.3653 165.752 68.1933 166.116 68.1787C166.457 68.1587 166.789 68.024 167.133 67.9653C167.381 67.9227 167.584 67.96 167.723 68.2427C168.145 69.088 169.137 69.068 169.889 68.76C170.115 68.6653 170.245 68.4893 170.241 68.224C170.233 67.9373 170.044 67.8853 169.8 67.804C168.907 67.496 167.94 67.44 167.091 66.9773C166.111 66.4413 165.896 65.7907 166 64.9733C166.111 64.144 166.931 63.512 167.8 63.324C168.548 63.1667 169.267 63.2467 169.989 63.34C170.904 63.456 171.532 64.092 171.787 65.168Z" fill="#00853F"/>
<path d="M107.535 69.32C106.679 70.0413 105.876 70.3507 104.952 70.304C103.823 70.2493 102.903 69.2173 102.973 67.9493C103.047 66.6027 103.011 65.2547 102.981 63.9067C102.973 63.456 103.076 63.312 103.552 63.324C104.823 63.356 104.823 63.3293 104.828 64.5733C104.833 65.668 104.841 66.772 104.857 67.8667C104.871 68.4533 105.253 68.8947 105.743 68.9307C106.401 68.9787 106.956 68.6133 107.097 68.0347C107.433 66.68 107.312 65.3013 107.303 63.9307C107.3 63.448 107.428 63.3107 107.916 63.32C109.136 63.3573 109.136 63.3307 109.136 64.5507C109.136 66.2493 109.121 67.9533 109.152 69.6507C109.16 70.096 109.027 70.2493 108.599 70.1853C108.457 70.1613 108.305 70.1613 108.167 70.1853C107.625 70.276 107.323 70.12 107.535 69.32Z" fill="#00853F"/>
<path d="M175.536 61.084C175.536 61.7227 175.564 62.2413 175.527 62.756C175.499 63.1973 175.601 63.4467 176.089 63.3387C176.776 63.184 176.663 63.648 176.695 64.0613C176.732 64.5333 176.657 64.8333 176.089 64.724C175.672 64.64 175.511 64.7893 175.527 65.2453C175.563 66.2387 175.531 67.236 175.549 68.232C175.564 68.9373 175.624 68.984 176.297 68.848C176.568 68.792 176.673 68.8107 176.707 69.1533C176.809 70.2187 176.777 70.2893 175.663 70.3093C175.357 70.3133 175.024 70.356 174.737 70.272C174.089 70.0747 173.719 69.4667 173.719 68.7387C173.719 67.576 173.701 66.416 173.713 65.2547C173.719 64.8893 173.685 64.6387 173.231 64.72C172.883 64.784 172.804 64.6027 172.831 64.2973C172.851 64.1147 172.851 63.9267 172.831 63.74C172.812 63.464 172.868 63.2853 173.192 63.3453C173.659 63.4307 173.783 63.2 173.708 62.792C173.611 62.2667 173.813 61.9467 174.311 61.74C174.697 61.568 175.065 61.3373 175.536 61.084Z" fill="#00853F"/>
<path d="M120.015 61.072C120.015 61.7227 120.044 62.2453 120.007 62.76C119.977 63.2027 120.077 63.4507 120.569 63.3387C121.245 63.184 121.155 63.636 121.177 64.0533C121.204 64.5093 121.168 64.8373 120.58 64.72C120.109 64.628 119.988 64.8307 120.007 65.2933C120.044 66.2893 120.009 67.28 120.035 68.276C120.045 68.9427 120.175 69.0413 120.819 68.8547C121.112 68.7693 121.156 68.828 121.179 69.112C121.267 70.2347 121.205 70.3027 120.051 70.3053C118.727 70.3107 118.189 69.7747 118.191 68.464C118.191 67.388 118.169 66.3093 118.191 65.2333C118.2 64.848 118.117 64.6387 117.689 64.716C117.325 64.78 117.287 64.5653 117.309 64.2787C117.337 63.808 117.089 63.1933 117.999 63.3173C118.316 63.36 118.196 62.9907 118.176 62.8373C118.093 62.2587 118.321 61.9213 118.852 61.7027C119.223 61.5533 119.567 61.3187 120.015 61.072Z" fill="#00853F"/>
<path d="M220.972 61.1773C220.972 61.7173 221 62.2533 220.963 62.788C220.937 63.2053 221.037 63.3987 221.497 63.3507C221.695 63.328 222.037 63.196 222.088 63.4733C222.168 63.8453 222.157 64.272 222.06 64.636C222.001 64.8293 221.643 64.7227 221.431 64.708C221.085 64.6867 220.956 64.784 220.965 65.1547C220.993 66.1907 220.977 67.2253 220.977 68.2627C220.977 68.7987 221.195 69.0573 221.743 68.856C222.063 68.7387 222.101 68.8613 222.133 69.1613C222.256 70.236 222.215 70.296 221.096 70.308C219.664 70.3253 219.141 69.8 219.145 68.3533C219.145 67.2973 219.133 66.2373 219.145 65.1773C219.151 64.8587 219.104 64.6613 218.716 64.7133C218.029 64.8027 218.303 64.272 218.273 63.9707C218.249 63.68 218.128 63.2427 218.7 63.34C219.141 63.4133 219.188 63.152 219.133 62.832C219.028 62.2507 219.269 61.896 219.809 61.7027C220.203 61.5627 220.475 61.172 220.972 61.1773Z" fill="#00853F"/>
<path d="M83.3613 60.8867C84.0133 60.88 84.7533 60.6467 85.1693 60.9187C85.628 61.216 85.3227 62.0173 85.332 62.5947C85.3587 64.9333 85.332 67.2693 85.3533 69.6093C85.3587 70.0453 85.2947 70.2173 84.792 70.204C83.452 70.176 83.452 70.2013 83.452 68.8467C83.452 66.428 83.452 64.004 83.4467 61.5853C83.4467 61.3667 83.4987 61.1293 83.3613 60.8867Z" fill="#00853F"/>
<path d="M230.529 70.068C230.519 67.1133 230.507 64.16 230.492 61.204C230.492 60.9373 230.581 60.8293 230.855 60.848C231.311 60.8733 231.761 60.8733 232.216 60.88C232.24 60.9147 232.264 60.9453 232.292 60.972C232.292 64.0027 232.292 67.032 232.297 70.0667C232.272 70.096 232.24 70.132 232.216 70.16C231.676 70.2067 231.131 70.2307 230.589 70.1533C230.577 70.116 230.551 70.092 230.529 70.068Z" fill="#00853F"/>
<path d="M142.071 66.94C142.071 65.0947 142.084 63.2533 142.065 61.4053C142.06 61.0053 142.121 60.8227 142.587 60.84C143.493 60.8693 143.493 60.84 143.493 61.7653C143.493 65.3293 143.485 68.9 143.513 72.4627C143.519 73.0653 143.261 73.0827 142.813 73.056C142.423 73.0293 142.025 73.192 142.048 72.4773C142.113 70.6333 142.071 68.788 142.071 66.94Z" fill="#00853F"/>
<path d="M77.8947 66.98C77.8947 68.804 77.8827 70.6307 77.9027 72.4533C77.9066 72.876 77.86 73.0827 77.3467 73.06C76.468 73.0173 76.468 73.0507 76.468 72.1707C76.468 68.6253 76.4893 65.0787 76.4507 61.5333C76.4427 60.8773 76.692 60.8467 77.2227 60.8253C77.844 60.796 77.9133 61.0493 77.904 61.5667C77.8787 63.3707 77.8947 65.1733 77.8947 66.98Z" fill="#00853F"/>
<path d="M177.897 66.7627C177.897 65.7667 177.905 64.776 177.888 63.78C177.877 63.4227 177.995 63.2867 178.344 63.3387C178.857 63.412 179.409 63.168 179.887 63.5507C179.976 63.62 180.128 63.556 180.228 63.4587C180.765 62.9347 181.355 63.2787 181.912 63.3853C182.167 63.4333 182.205 63.6627 182.143 63.884C182.029 64.2693 181.895 64.6453 181.781 65.0293C181.701 65.3187 181.551 65.1467 181.407 65.1147C180.34 64.8653 179.823 65.2547 179.789 66.3547C179.757 67.472 179.724 68.588 179.724 69.7053C179.724 70.0587 179.661 70.2053 179.259 70.2053C177.893 70.2147 177.893 70.2333 177.893 68.8747C177.897 68.1667 177.897 67.4627 177.897 66.7627Z" fill="#00853F"/>
<path d="M62.2387 63.86C62.736 63.2613 63.34 63.1453 64.0133 63.2227C64.54 63.2813 64.7067 63.5253 64.552 64.032C64.5267 64.1067 64.5227 64.1893 64.5107 64.272C64.42 64.9627 64.2267 65.38 63.3747 65C62.908 64.788 62.312 65.5027 62.2907 66.216C62.252 67.376 62.2187 68.5387 62.2267 69.6973C62.232 70.1147 62.0933 70.204 61.6987 70.204C60.3893 70.2013 60.3893 70.2173 60.3893 68.876C60.3893 67.1973 60.4013 65.5147 60.38 63.8387C60.376 63.4173 60.508 63.2907 60.908 63.332C61.1733 63.3627 61.452 63.3693 61.7133 63.332C62.0987 63.272 62.2253 63.4467 62.2387 63.86Z" fill="#00853F"/>
<path d="M124.057 64.08C124.692 63.276 125.364 63.052 126.196 63.3093C126.571 63.4213 126.793 63.5973 126.555 64.0187C126.517 64.084 126.533 64.1827 126.517 64.2573C126.397 64.784 126.357 65.2627 125.519 65.108C124.675 64.952 124.332 65.3707 124.283 66.372C124.219 67.468 124.199 68.568 124.209 69.6667C124.215 70.1107 124.084 70.2133 123.656 70.208C122.372 70.1933 122.372 70.2133 122.372 68.912C122.372 67.232 122.391 65.5533 122.364 63.8733C122.355 63.4213 122.497 63.276 122.923 63.3413C123.04 63.3587 123.171 63.3413 123.292 63.3467C123.708 63.352 124.272 63.1507 124.057 64.08Z" fill="#00853F"/>
<path d="M197.247 60.8533C196.587 63.4693 195.939 66.0147 195.289 68.5667C195.227 68.82 195.177 69.076 195.12 69.332C194.915 70.2493 194.915 70.224 193.975 70.2053C193.584 70.2027 193.571 70.0267 193.636 69.7533C194.155 67.6827 194.675 65.6147 195.185 63.5453C195.379 62.7573 195.575 61.968 195.735 61.1733C195.783 60.944 195.875 60.8507 196.097 60.8507C196.464 60.8493 196.828 60.8533 197.247 60.8533Z" fill="#00853F"/>
<path d="M129.136 70.1587C128.599 70.2093 128.055 70.224 127.515 70.152C127.501 70.1173 127.48 70.0933 127.453 70.0693C127.453 68.2747 127.453 66.4813 127.449 64.684C127.507 64.616 127.507 64.5507 127.449 64.4827C127.453 64.1427 127.453 63.7987 127.459 63.456C127.485 63.4373 127.501 63.4107 127.515 63.3787C128.055 63.312 128.593 63.324 129.133 63.3707C129.163 63.484 129.188 63.5973 129.22 63.7067V70.0627C129.193 70.096 129.163 70.1293 129.136 70.1587Z" fill="#00853F"/>
<path d="M128.109 62.4787C127.737 62.516 127.308 62.584 127.371 61.8067C127.449 60.8587 127.388 60.8493 128.117 60.8493C128.795 60.8493 129.133 61.092 129.133 61.5773C129.133 62.1782 128.792 62.4787 128.109 62.4787Z" fill="#00853F"/>
<path d="M127.449 64.4813C127.507 64.5493 127.507 64.6147 127.449 64.6827C127.404 64.6573 127.325 64.6427 127.319 64.6107C127.292 64.5133 127.369 64.4867 127.449 64.4813Z" fill="#00853F"/>
<path d="M129.22 63.7067C129.188 63.596 129.163 63.484 129.133 63.3707C129.333 63.4427 129.223 63.588 129.22 63.7067Z" fill="#00853F"/>
<path d="M127.515 63.3787C127.507 63.4107 127.485 63.436 127.459 63.456C127.417 63.384 127.453 63.376 127.515 63.3787Z" fill="#00853F"/>
<path d="M232.291 60.9733C232.259 60.952 232.233 60.9213 232.215 60.8813C232.285 60.8693 232.319 60.896 232.291 60.9733Z" fill="#00853F"/>
<path d="M127.453 70.068C127.48 70.092 127.501 70.116 127.515 70.1507C127.449 70.156 127.417 70.1387 127.453 70.068Z" fill="#00853F"/>
<path d="M129.136 70.1587C129.168 70.1307 129.193 70.096 129.223 70.064C129.248 70.1507 129.216 70.1707 129.136 70.1587Z" fill="#00853F"/>
<path d="M230.529 70.068C230.552 70.092 230.577 70.116 230.587 70.1507C230.524 70.156 230.487 70.1387 230.529 70.068Z" fill="#00853F"/>
<path d="M232.212 70.1587C232.24 70.1307 232.267 70.096 232.292 70.064C232.324 70.1453 232.285 70.176 232.212 70.1587Z" fill="#00853F"/>
<path d="M21.476 25.34L20.616 27.4853C22.1187 27.0573 23.8373 26.844 25.5547 26.844H38.0093L38.8693 24.48C38.0093 24.48 37.152 24.268 36.292 24.268C31.1387 24.052 26.4147 24.4787 21.476 25.34Z" fill="#00853F"/>
<path d="M236.876 47.0293H237.52C237.947 47.0293 238.163 47.0293 238.163 47.4613C238.163 47.888 237.731 47.888 237.301 47.888H236.657V47.0293H236.876ZM236.229 50.036H236.875V48.5347H237.301L238.163 50.036H238.807L237.729 48.316C238.161 48.316 238.591 47.8867 238.807 47.46V47.244C238.807 46.3827 238.375 46.1707 237.519 46.1707H236.228V50.036L236.229 50.036ZM237.303 51.5387C239.019 51.5387 240.525 50.036 240.525 48.316C240.525 46.6 239.019 45.0947 237.303 45.0947C235.587 45.0947 234.081 46.6 234.081 48.316C234.081 50.036 235.587 51.5387 237.303 51.5387ZM237.303 50.896C235.799 50.896 234.511 49.8213 234.511 48.5347C234.511 47.0293 235.587 45.7413 236.875 45.7413C238.163 45.7413 239.664 46.8173 239.664 48.1053V48.3173C239.88 49.6067 239.019 50.896 237.303 50.896C237.448 50.896 237.448 50.896 237.303 50.896Z" fill="#00853F"/>
<path d="M75.8067 7.516H91.7V38.4413L109.952 38.2253L101.149 51.112H75.8067V7.516Z" fill="#00853F"/>
<path d="M144.745 19.972C140.663 18.4693 136.585 17.824 132.287 17.824C129.708 17.824 125.416 17.824 125.416 20.6173C125.416 26.4147 147.323 21.048 147.323 37.7973C147.323 49.392 136.152 52.4 126.921 52.4C121.123 52.4 115.324 51.756 109.741 50.2507V38.2253C114.249 40.3747 119.189 41.4467 124.127 41.8773C127.993 41.8773 131.213 41.0187 131.213 38.8693C131.213 33.0693 109.307 38.2253 109.307 21.4747C109.307 9.44799 121.335 7.29866 130.785 7.29866C135.508 7.29866 140.016 7.73066 144.527 8.80399L144.745 19.972Z" fill="#00853F"/>
<path d="M185.545 50.4667C181.897 51.5387 177.817 52.1853 173.952 52.1853C159.993 52.1853 148.823 44.668 148.823 28.9907C148.823 14.3893 160.42 7.08801 173.952 7.08801C177.817 7.08801 181.684 7.51734 185.333 8.37734V19.7573C182.755 18.6827 179.964 18.2533 177.385 18.0387C170.515 18.0387 165.359 21.9027 165.359 28.9893C165.359 36.508 170.084 40.3747 176.74 40.3747C179.751 40.3747 182.54 39.7307 185.332 38.6547L185.545 50.4667Z" fill="#00853F"/>
<path d="M233.22 29.8507C233.22 15.2493 224.415 7.29867 209.812 7.29867C195.208 7.29867 186.62 15.248 186.62 29.8507C186.62 44.4533 195.207 52.4 209.812 52.4C224.416 52.4 233.22 44.668 233.22 29.8507ZM203.371 29.8507C203.371 25.7693 203.804 17.824 209.813 17.824C215.829 17.824 216.259 25.7693 216.473 29.8507C216.473 34.576 216.259 41.8773 209.813 41.8773C204.013 41.8773 203.371 34.36 203.371 29.8507Z" fill="#00853F"/>
<path d="M54.548 0H32.6413L22.548 23.192C24.4813 22.7653 26.4133 22.336 28.3467 22.1187C31.9973 21.904 35.8627 21.904 39.5133 22.1187L42.7347 12.8853H42.9493L46.3853 22.9813C50.6813 23.624 54.5467 25.1253 58.4107 27.2747C63.136 30.0667 65.2853 35.4373 62.2773 37.5827C62.2773 36.5093 62.064 35.4373 61.6333 34.3613C60.7747 32.428 59.056 30.7107 57.124 29.636C54.1173 27.92 50.6813 26.6307 47.46 25.7707L48.5333 28.7773H48.32C50.8947 29.636 53.2587 30.7107 55.6213 32C60.3453 34.7933 62.4933 40.1613 59.4867 42.3093C59.4867 41.2347 59.2707 40.16 58.8427 39.0867C57.9827 37.1533 56.2653 35.4373 54.3333 34.3627C47.8893 30.9253 41.0187 28.992 33.7173 28.992C29.2067 28.7773 24.4827 28.992 19.972 29.8533L18.4693 32.2147C19.7573 32 21.2613 31.7867 22.5493 31.572C26.4147 31.1427 30.496 31.1427 34.36 31.572C40.588 32.0013 46.816 33.7187 52.184 36.7253C57.1253 39.5173 59.0573 44.6707 56.0507 46.82C56.2667 45.744 56.2667 44.6707 55.6227 43.812C54.548 41.88 52.8293 40.1613 50.896 39.088C46.816 36.7253 42.0933 35.0053 37.5827 34.364L50.468 40.592L51.328 43.168L53.0453 44.8867C53.4733 45.316 53.904 45.96 54.1187 46.6053C54.9787 48.1093 54.548 50.2533 53.0453 51.328H75.808L54.548 0Z" fill="#00853F"/>
<path d="M26.844 39.0853C22.9773 38.8693 19.3267 38.8693 15.4613 39.3L10.308 50.896H31.9987L34.7907 39.944C31.9973 39.5133 29.4213 39.3 26.844 39.0853Z" fill="#00853F"/>
<path d="M21.476 25.34L20.4013 27.4853C22.12 27.0573 23.624 26.844 25.3413 26.844C29.2067 26.628 33.2867 26.628 37.1533 26.844H37.7973L38.6547 24.48C37.7973 24.48 36.936 24.268 36.0787 24.268C31.1387 23.836 26.2 24.268 21.476 25.34Z" fill="#00853F"/>
<path d="M0 43.8093C0 43.8093 2.36133 39.0853 10.524 36.292C13.7453 35.2187 17.1813 34.576 20.4013 34.1453C24.9107 33.5027 29.4227 33.5027 33.7173 33.9307C39.5147 34.36 45.0987 36.076 50.252 38.8693C51.328 39.5133 52.184 40.1587 53.2587 40.8027C54.3333 41.4453 55.192 42.5213 55.6213 43.596C56.6947 45.0973 56.2653 47.0307 54.76 48.1067C53.688 45.0973 51.5387 42.736 48.7493 41.4467C42.52 38.012 35.4333 36.2933 28.3453 36.0773C21.0427 35.436 13.528 36.2933 6.44 38.8707C4.296 40.1587 1.932 41.664 0 43.8093Z" fill="#00853F"/>
<path d="M30.9253 33.716C26.4147 33.5013 22.12 33.716 17.6093 34.5773L16.536 36.9373L18.2547 36.7227C22.764 36.292 27.2733 36.292 31.9987 36.7227C33.2867 36.9373 34.36 36.9373 35.4347 37.152L36.0787 34.3613C34.36 33.9307 32.6413 33.716 30.9253 33.716Z" fill="#00853F"/>
<path d="M8.37467 32.6427C7.30134 33.5027 6.01334 34.3613 4.94 35.436C7.51734 31.3533 11.3827 28.3467 15.892 27.0587C19.328 25.7693 22.9773 24.9133 26.844 24.48C30.708 24.0533 34.7893 24.0533 38.6547 24.48C44.8827 24.9133 51.1107 26.6293 56.48 29.6347C61.4213 32.4267 63.3533 37.7973 60.3467 39.944C60.3467 38.8693 60.132 37.7973 59.7027 36.7213C58.8427 34.7893 57.1253 33.0693 55.192 31.9973C48.7507 28.56 41.6627 26.628 34.576 26.628C27.2733 25.9853 19.972 27.0573 13.1 29.8507C11.596 30.7093 9.87867 31.568 8.37467 32.6427Z" fill="#00853F"/>
<path d="M6.01333 36.936C4.72533 37.58 3.652 38.6547 2.57733 39.7293C3.652 37.796 5.15466 36.2907 7.08666 35.2173C9.02 33.7147 10.9533 32.6413 13.3147 31.7827C16.7507 30.492 20.4 29.6333 24.2667 29.2053C28.132 28.7733 32.2107 28.7733 36.0773 29.2053C42.304 29.632 48.532 31.3507 54.116 34.3587C58.84 37.1493 60.988 42.5187 57.98 44.6653C57.98 43.5933 57.98 42.5187 57.552 41.4427C56.4773 39.5107 54.9747 37.7947 52.8253 36.72C46.5987 33.284 39.512 31.5667 32.4253 31.3507C25.768 30.7067 18.896 31.7813 12.452 33.928C9.87866 34.7907 7.94533 35.8627 6.01333 36.936Z" fill="#00853F"/>
</g>
<defs>
<clipPath id="clip0_29_149">
<rect width="240.525" height="73.0632" fill="white"/>
</clipPath>
</defs>
</svg>
